<?xml version="1.0" encoding="UTF-8"?>
<svg id="a" xmlns="http://www.w3.org/2000/svg" viewBox="0 0 50 110">
    <path d="M20.24,69.5c-.45,2.73-.34,5.42.54,8.05.66,1.98,1.63,3.82,2.65,5.63,1.12,1.99,2.35,3.9,3.88,5.6.87.96,1.85,1.76,3.03,2.32,1.34.63,2.66,1.3,3.97,1.99,2.35,1.24,4.79,2.14,7.51,2.05.66-.02,1.32.12,1.95.35.75.26.81.54.2,1.03-.95.77-2,1.38-3.14,1.82-1.43-.07-2.66-.88-4.06-1.07-.35-.05-.62-.32-.88-.57-1.15-1.11-2.46-2-3.83-2.81-.66-.39-1.2-.95-1.62-1.3.87.78,1.98,1.61,2.97,2.58.44.43.77.91.98,1.47.1.27.25.52.36.78.32.82.95,1.19,1.8,1.22.38.02.75.06,1.11.16.21.06.45.1.36.42-1.13.24-2.25.28-3.28-.34-1.31-.78-2.52-.61-3.69.27-.11.08-.22.15-.33.22-.75.23-1.3-.24-1.88-.57-.56-.46-.78-1.13-1.1-1.74-.59-2.57-1.51-5.03-2.6-7.43-.61-1.35-1.35-2.64-1.96-3.99-.83-1.84-1.49-3.74-1.82-4.98.57,2.05,1.65,4.67,2.8,7.28,1.03,2.35,1.84,4.78,2.66,7.21.21.61.24,1.26.32,1.89,0,.53-.02,1.04-.38,1.49-.33.43-.22.69.37,1.08.2.33.24.67.05,1.01-.65.3-.8.28-1.11-.3-.23-.44-.48-.38-.79-.14-.19.15-.37.32-.53.5-.28.31-.61.42-1.02.28-1.4-1.69-1.93-3.69-2.08-5.83-.31-4.28-.85-8.54-1.6-12.77-.35-1.98-.37-4-.41-6.02-.01-.55.03-1.11-.11-1.65-.43-1.63-.2-3.24.14-4.85.04-.2.1-.39.18-.57.07-.15.19-.3.35-.22.16.08.12.26.04.41Z"
          style="fill:#080808; stroke-width:0px;"/>
    <path d="M9.47,24.18c.38.37.78.72,1.15,1.1.39.41.82.77,1.35.94,1.54.49,1.86,1.78,2,3.13.25,2.36-.28,4.61-.99,6.84-.52,1.64-1.09,3.28-1.49,4.96-.24.99-.37,2.01-.4,3.02-.09,2.87-.05,5.74.38,8.6.52,3.41.95,6.83,1.22,10.27.17,2.18.67,4.33,1.15,6.46.45,1.96.37,3.9.22,5.87-.11,1.48-.27,2.95-.33,4.43-.05,1.04-.23,2.07-.15,3.11.26.51.31,1.01-.13,1.47,0,.22,0,.44,0,.66.13.31.3.62,0,.93-.19.44-.15.91-.12,1.37.14,1.74.24,3.48.25,5.22.03,3.69-.56,7.3-1.38,10.88-.09.38-.07.8-.34,1.12-.97-.4-1.06-.61-.98-1.65.39-5.18.98-10.34,1.5-15.51.38-3.81.63-7.62.89-11.44.08-1.24.04-2.47-.2-3.7-.03-1.2-.34-2.36-.54-3.54-.52-3.11-1.13-6.21-1.68-9.32-.56-3.12-1.21-6.22-1.76-9.34-.42-2.39-.71-4.8-.24-7.22.02-.11.02-.22-.02-.33.32-1.3,1-2.45,1.61-3.62,1.19-2.28,1.85-4.72,2.21-7.25.28-1.94-.72-3.45-1.64-4.98-.33-.55-.76-1.03-1.15-1.54-.21-.28-.43-.57-.4-.95Z"
          style="fill:#2e2e2e; stroke-width:0px;"/>
    <path d="M20.24,69.5s0-.05-.02-.06c-.02-.03-.05-.05-.08-.07-.04.17-.09.34-.13.51-.36,1.65-.52,3.29-.12,4.97.28,1.18.13,2.42.16,3.63.05,2.45.58,4.82.9,7.22.4,3.04.82,6.08,1.03,9.15.1,1.47.2,2.96.95,4.3.32.58.79,1.07,1.02,1.7.47.24.52.67.52,1.12-.33.32-.6.79-1.2.47.09.27.48.45.15.76-.99.31-2.06.22-3.04.57-.17-.35-.14-.73-.14-1.11,0-3.03.06-6.05,0-9.08-.08-3.55-.39-7.09-.84-10.62-.04-.33-.06-.66-.08-.99-.14-.54-.1-1.09-.04-1.62.04-.37-.4-.67-.09-1.04.04-1.77-.09-3.53-.24-5.3-.2-2.32.26-4.58.81-6.82.91-3.76,1.89-7.51,2.56-11.33.37-2.13.7-4.28.73-6.45-.02-.43-.02-1.43.01-2.27-.04-1.15-.04-2-.08-3,0-.07-.04-.12-.06-.18-.07-2.18-.63-4.26-1.54-6.21-1.44-3.07-1.47-6.23-.99-9.47.06-.39.18-.77.31-1.15.16-.5.44-.87.96-1.1,1.44-.64,2.12-1.86,2.45-3.34.15-.66.14-1.37.52-1.97,0,.71,0,1.41,0,2.12,0,.58-.25,1.07-.52,1.55-.59,1.06-1.14,2.15-1.76,3.19-1.29,2.19-1.34,4.47-.65,6.84.56,1.94,1.4,3.76,2.27,5.58.3.96.67,1.89.79,2.9.02.15.03.3.03.46.26.64.09,3.23.03,3.45-.13,2.74-.63,5.43-1.14,8.12-.88,4.6-2.07,9.13-3.16,13.67-.07.3-.15.6-.23.89Z"
          style="fill:#2f2f2f; stroke-width:0px;"/>
    <path d="M9.08,15.4c-.27-.22-.49-.49-.68-.79,1.08-.55,2.21-1,3.36-1.41,1.33-.48,2.56-1.1,3.33-2.38.15-.26.38-.36.67-.32.54.06.72-.26.71-.72-.01-.46-.06-.92-.01-1.39.04-.38-.27-.57-.5-.81-.49-.51-.61-1.11-.35-1.78.21-.55.64-.78,1.18-.81.72-.04,1,.59,1.57,1.03-.47.03-.63-.23-.84-.4-.53-.4-1.04-.42-1.44-.05-.36.34-.47,1.15-.05,1.52.78.68.79,1.52.73,2.42-.04.58.06,1.03.8.98.24-.02.43.13.54.33.78,1.33,2.08,1.92,3.45,2.43,1.16.44,2.31.89,3.46,1.34.21.47,0,.72-.44.87-.26,0-.52.06-.78-.04-1.82-.75-3.73-1.26-5.55-1.99-.33-.13-.61-.38-.96-.43-.64-.1-1.27-.08-1.88.21-1.76.82-3.58,1.52-5.41,2.17-.3.11-.6.17-.9.02Z"
          style="fill:#fdfdfd; stroke-width:0px;"/>
    <path d="M29.01,98.57l1.71.81c-.98,1.06-2.04,1.95-3.58,1.99-.24-.23-.49-.46-.14-.79-.04-.26-.09-.53-.13-.79-.27-.42-.34-.84-.15-1.32.16-.43.13-.89.02-1.34.05-1.21-.4-2.29-.77-3.4-.97-2.87-2.19-5.64-3.29-8.46-.74-1.91-1.32-3.89-1.78-5.95.2.04.21.18.24.28.95,3.44,2.66,6.54,4.21,9.72,1.19,2.45,2.09,5.01,2.73,7.67-.01.15-.04.3-.09.45-.28.8.14,1.28,1.02,1.15Z"
          style="fill:#2f2f2f; stroke-width:0px;"/>
    <path d="M38.02,99.23c-.5-.18-1.03-.22-1.56-.25-.91-.05-1.65-.39-1.96-1.3-.49-1.4-1.37-2.47-2.53-3.4-.92-.74-1.64-1.7-2.64-2.37.17-.19.27-.11.35-.05,1.79,1.37,3.85,2.34,5.57,3.8.29.24.56.5.83.76.35.33.74.55,1.22.62,1.11.14,2.07.77,3.17.93.2.03.28.2.37.36-.89.46-1.83.73-2.81.9Z"
          style="fill:#2f2f2f; stroke-width:0px;"/>
    <path d="M8.83,42.53c.22.44.01.88-.04,1.3-.21,1.82.04,3.62.36,5.4,1.15,6.49,2.49,12.94,3.56,19.44.16.96.3,1.92.44,2.88.04.24.04.49-.09.71-.92-4.15-1.61-8.34-2.4-12.51-.6-3.19-1.24-6.38-1.78-9.59-.43-2.54-.68-5.09-.06-7.64Z"
          style="fill:#0d0d0d; stroke-width:0px;"/>
    <path d="M24.52,15.3c.16-.23.33-.47.49-.7.43-.06.89-.18,1.07.41.11.31.1.56-.29.64-.38.68-.47,1.47-.75,2.18-.31,0-.61-.03-.92-.02-.42.02-.72.15-.44.66.09.17.1.34-.06.48-.17.15-.33.09-.47-.04-.21-.2-.41-.24-.62,0-.17.19-.32.37-.17.64.09.16.29.33.05.51-.22.16-.41.04-.6-.09-.16-.12-.34-.2-.5-.3-.21-.25-.05-.46.1-.65.8-1.08,1.6-2.17,2.41-3.25.19-.25.48-.29.71-.46Z"
          style="fill:#121212; stroke-width:0px;"/>
    <path d="M27,100.57c-.01.27.39.47.14.79-.96.43-1.75,1.18-2.78,1.49-.57-.16-.38-.48-.16-.8-.09-.4-.17-.8-.26-1.2.53-.17.81-.66,1.2-1,.61-.54,1.06-.43,1.26.36.09.36.33.36.6.37Z"
          style="fill:#111; stroke-width:0px;"/>
    <path d="M25.79,15.65c.1-.21.19-.43.29-.64.46.17.9.35,1.3.64.36.26.57.6.66,1.03.03.13.02.27-.12.35-.14.08-.28,0-.34-.11-.38-.74-1.16-.9-1.8-1.28Z"
          style="fill:#fbfbfb; stroke-width:0px;"/>
    <path d="M7.33,15.15c.06.26.12.52.17.79-.6.14-1.13.37-1.39,1-.06.14-.15.31-.34.24-.21-.08-.18-.3-.15-.46.21-.9.85-1.35,1.7-1.56Z"
          style="fill:#fafafa; stroke-width:0px;"/>
    <path d="M24.2,102.05c.04.27,0,.56.16.8-.25.29-.62.28-.95.35-.11-.13-.21-.29-.34-.39-.4-.31-.39-.6,0-.89.18-.13.31-.46.58-.26.25.18-.14.37-.08.62.26.06.4-.24.63-.23Z"
          style="fill:#434343; stroke-width:0px;"/>
    <path d="M24.86,44.89c-.22-.46-.02-.99-.25-1.44-.06-.93-.33-1.81-.6-2.69-.08-.25-.22-.49-.09-.76.94,1.51,1.03,3.18.94,4.89Z"
          style="fill:#141414; stroke-width:0px;"/>
    <path d="M25,17.59c-.45-.34-1.51-.09-1.78.43-.07.14-.05.36-.31.35-.45,0-.69.37-.82.66-.21.48-.49.52-.9.38-.58.34-.91.91-1.29,1.42-.21.35-.11.78-.39,1.16-.47.64-1.07,1.11-1.64,1.63-.22.21-.52.34-.85.31-.79-.07-1.84-1.08-1.95-1.86-1.14-1.31-2.32-2.59-3.42-3.93-.79-.97-1.47-2.02-2.43-2.85-.16-.37-.41-.64-.84-.67-.53-.25-.91-.06-1.08.54-.28.34-.09.57.17.79.35,1.15.75,2.3,1.02,3.47.37,1.58.64,3.18.95,4.78.62.92,1.22,1.88,2.3,2.31,1.27.51,1.75,1.54,1.84,2.76.13,1.66.07,3.31-.42,4.93-.46,1.5-.85,3.03-1.38,4.51-1.34,3.75-1.24,7.62-.97,11.49.21,2.93.77,5.83,1.1,8.76.35,2.99.54,5.99,1.2,8.94.48,2.13.94,4.27.65,6.5-.2,1.53-.25,3.09-.34,4.63-.08,1.28-.34,2.55-.13,3.84.35.49.25,1.08-.1,1.54-.08.19-.09.39-.07.59.41.38.23.72-.07,1.05-.24,1.39,0,2.78.1,4.16.14,2.2.03,4.37-.15,6.55-.18,2.23-.71,4.41-1.14,6.6-.08.4-.24.82-.02,1.23.29.09.58.22.88.27,2.18.34,4.35.15,6.51-.2.51-.08.88-.39,1.11-.85.17-.44.2-.9.19-1.37-.03-3.12.06-6.23,0-9.35-.05-2.28-.31-4.54-.46-6.81-.1-1.41-.35-2.81-.46-4.22-.04-.68.01-1.36-.26-2.01-.08-.19-.2-.31-.35-.36.17-.14.31-.29.4-.42.12-1.01.08-2.03.02-3.05-.11-1.65-.33-3.3-.13-4.97.29-2.31.91-4.56,1.45-6.81,1.19-4.88,2.32-9.78,2.64-14.82.16-.89-.25-1.74-.22-2.63.01-.33-.09-1.79.02-2.24.07-.28.13-.56.07-.84-.19-2.25-.8-4.39-1.67-6.46-.53-1.27-1.04-2.53-1.12-3.93-.12-1.93-.12-3.84.35-5.73.17-.68.54-1.18,1.17-1.53,1.46-.81,2.14-2.15,2.37-3.75.08-.58.05-1.18.22-1.75.15-.96.29-1.93.44-2.89.05-.09.03-.19-.04-.24ZM18.03,83.23c0-.3,0-.6,0-.91,0,.02,0,.04,0,.06,0,.28,0,.57-.01.85ZM19.17,103.4c-.08.27-.19.52-.52.51-.3,0-.4-.25-.46-.49-.11-.43-.15-.87-.16-1.31-.05-2.46.2-4.9.35-7.35.07-1.03.27-2.08.14-3.11-.16-1.3-.27-2.6-.35-3.89,0-.05,0-.1,0-.15.29,2.63.74,5.25.84,7.91.09,2.45.26,4.9.22,7.35,0,.18-.01.36-.06.53ZM18.03,81.5c0-.31,0-.62,0-.93,0-.1.14-.24.33-.39-.08.44-.25.88-.33,1.32Z"
          style="fill:#080808; stroke-width:0px;"/>
    <path d="M18.24,82.38c-.1,3.2.43,6.34.84,9.5.18,1.4.3,2.82.33,4.23.05,2.39.25,4.77.16,7.16-.03.89-.19,1.1-.88,1.25-.51.11-.76-.09-.83-.58-.23-1.65-.2-3.31-.1-4.97.09-1.7.27-3.39.34-5.09.16-3.87-.46-7.72-.3-11.59.03-.63.05-1.27.03-1.91-.09-.2-.21-.39-.23-.61-.02-.25.07-.45.32-.5.26-.05.39.1.42.37.04.34.11.69-.01,1-.24.58-.17,1.15-.09,1.73Z"
          style="fill:#2e2e2e; stroke-width:0px;"/>
    <path d="M14.78,22.19c.48.34.95.71,1.45,1.03.82.52,1.07.48,1.83-.12.8-.64,1.43-1.43,2.15-2.15-.39,1.46-1.42,2.4-2.61,3.21-.27.18-.6.2-.89.03-.83-.48-1.61-1.03-1.93-2Z"
          style="fill:#2f2f2f; stroke-width:0px;"/>
    <path d="M22.75,50.52c-.02.16-.15.19-.28.2-.13,0-.27-.03-.28-.19-.01-.17.12-.2.26-.19.12,0,.26.02.3.18Z"
          style="fill:#080808; stroke-width:0px;"/>
    <path d="M29.01,98.57c.05.23.03.45-.2.57-.24.13-.41-.05-.57-.19-.06-.06-.13-.12-.19-.18q-.92-.9.03-1.79c.24.57.52,1.12.93,1.6Z"
          style="fill:#424242; stroke-width:0px;"/>
    <path d="M26.74,97.12c.24.88.13,1.77.13,2.66-.78-.57-.8-.62-.3-1.39.26-.4.13-.84.17-1.27Z"
          style="fill:#111; stroke-width:0px;"/>
</svg>
