<?xml version="1.0" encoding="UTF-8"?>
<svg id="b" xmlns="http://www.w3.org/2000/svg" viewBox="0 0 80 80">
    <path d="M75.97,38.39c6.38-10.64-8.84-25.43-16.39-30.36C46.7-.38,30.82,1.16,18.35,9.01-6.25,24.47-.63,62.09,24.28,73.99c-2.85-1.5,5.8,2.09,6.79,3.03-.21-1.2-1.14-1.67-2.79-1.41,2.33.66,4.63.99,7,1.41-.91.02-1.8-.11-2.67-.39,1.48-.31,6.88,1.26,9.48.94.04.02,7.84-1.72,6.7-1.69.5.14.86-.03,1.09-.5.23.36.04.59-.58.67,1-.25,3.08-.69,3.72-1.63-1.04.21-2.02.71-3.07.87,1.57-2.27,5.97-2.47,8.41-3.14-.51.95-2.75,1.38-3.73,1.8,2.75-.81,16.5-5.98,14.11-9.43-3.51.61-4.18,3.43-8.47,4.01-.27-.84.07-1.48,1-1.92-1.33.42-2.65.9-3.93,1.45,2.34-1.5,6.02-3.72,8.02-6.09-.75.48-1.5.79-2.2,1.35,6.99-7.15,10.41-17.42,9.15-27.33-.03,4.66,1.19,5.45,3.66,2.39ZM58.74,72.05"
          style="fill:#fecdd3; stroke-width:0px;"/>
    <path d="M58.27,33.18c1.74,3.4,2.5,7.3,2.19,11.14-.36,3.83-1.72,7.6-4.06,10.7-.54.81-1.23,1.49-1.87,2.23-.72.65-1.39,1.36-2.19,1.91-1.52,1.21-3.25,2.14-5.04,2.87-1.8.76-3.72,1.14-5.64,1.41l-1.46.08-.73.04-.73-.03-1.46-.07-1.44-.22c-.48-.06-.96-.17-1.43-.3-.47-.13-.95-.23-1.41-.39-.91-.34-1.84-.64-2.7-1.1-.89-.39-1.71-.93-2.54-1.43-.41-.26-.78-.58-1.17-.86-.4-.28-.77-.59-1.12-.93-2.92-2.56-5.09-5.96-6.22-9.67-1.05-3.73-1.18-7.72-.18-11.45,1.01-3.72,3.07-7.12,5.85-9.74-2.68,2.72-4.58,6.16-5.44,9.84-.9,3.67-.69,7.57.4,11.15.63,1.77,1.38,3.49,2.43,5.05,1.05,1.54,2.24,3.02,3.68,4.22,1.41,1.23,2.97,2.29,4.67,3.07.83.44,1.72.72,2.6,1.04.44.15.9.24,1.35.36.45.12.9.23,1.37.28l1.38.22,1.4.08.7.04.7-.03,1.4-.07c1.85-.25,3.7-.6,5.44-1.32,1.73-.7,3.41-1.58,4.88-2.74.78-.53,1.43-1.21,2.13-1.82.63-.7,1.31-1.34,1.85-2.12,4.65-5.92,5.67-14.51,2.4-21.44Z"
          style="fill:#4d2600; stroke-width:0px;"/>
    <path d="M28.18,24.76c1.71-1.32,3.7-2.3,5.79-2.94,2.09-.65,4.31-.89,6.5-.81,2.19.11,4.38.57,6.4,1.4,2.03.83,3.91,1.98,5.5,3.46-1.8-1.19-3.72-2.16-5.73-2.83-2.01-.66-4.1-1.08-6.21-1.16-2.11-.1-4.23.1-6.29.58-2.06.49-4.06,1.28-5.96,2.3Z"
          style="fill:#4d2600; stroke-width:0px;"/>
    <path d="M54.5,42.29c.03,3.54-.49,7.12-1.8,10.45-1.33,3.3-3.4,6.41-6.38,8.51-1.48,1.04-3.18,1.84-5,2.11-1.81.29-3.68.14-5.42-.43-1.75-.55-3.35-1.52-4.7-2.73-1.35-1.21-2.54-2.61-3.48-4.16-.91-1.56-1.71-3.19-2.24-4.91-.32-.84-.48-1.73-.72-2.6-.14-.89-.37-1.76-.43-2.66-.4-3.56-.25-7.21.72-10.67.92-3.46,2.56-6.77,4.99-9.41,2.42-2.62,5.87-4.41,9.44-4.35-3.58.09-6.87,1.99-9.13,4.64-2.31,2.63-3.85,5.89-4.66,9.29-.85,3.4-1.01,6.95-.59,10.41.07.87.3,1.72.44,2.58.24.84.4,1.7.72,2.51.52,1.67,1.31,3.23,2.19,4.72.89,1.49,2.01,2.83,3.29,3.99,1.27,1.16,2.77,2.08,4.4,2.61,1.62.54,3.37.69,5.06.43,1.7-.24,3.31-.96,4.74-1.92,2.89-1.93,4.99-4.91,6.37-8.12,1.42-3.22,2.08-6.75,2.19-10.29Z"
          style="fill:#4d2600; stroke-width:0px;"/>
    <path d="M47.45,44.23c.24,2.66.04,5.34-.48,7.96-.55,2.6-1.42,5.22-3,7.38.97-2.48,1.63-4.99,2.16-7.56.54-2.56.89-5.16,1.33-7.79Z"
          style="fill:#4d2600; stroke-width:0px;"/>
    <path d="M39.5,21.43c.94-.09,1.86.33,2.62.89.78.56,1.35,1.33,1.89,2.1,1.04,1.58,1.72,3.33,2.25,5.11,1.02,3.58,1.4,7.3,1.19,10.98-.25-1.83-.49-3.64-.81-5.43-.33-1.79-.71-3.57-1.22-5.3-.5-1.74-1.13-3.44-2-5-.47-.75-.93-1.53-1.59-2.13-.63-.62-1.42-1.1-2.34-1.21Z"
          style="fill:#4d2600; stroke-width:0px;"/>
    <path d="M39.5,63.14c-.87.02-1.71-.33-2.43-.84-.68-.55-1.29-1.19-1.78-1.92-.99-1.45-1.68-3.06-2.26-4.69-1.09-3.3-1.62-6.75-1.85-10.21-.17-3.46-.06-6.93.48-10.35.56-3.4,1.44-6.82,3.18-9.8-.71,1.57-1.25,3.19-1.63,4.86-.41,1.66-.7,3.34-.9,5.04-.4,3.39-.51,6.81-.27,10.21.15,3.4.69,6.79,1.62,10.06.49,1.62,1.1,3.22,1.98,4.66.42.74.96,1.39,1.57,1.97.65.53,1.42.94,2.28,1.01Z"
          style="fill:#4d2600; stroke-width:0px;"/>
    <path d="M47.59,28.91c-3.94-.05-7.85-.08-11.75.11-3.91.17-7.79.55-11.71.95,3.8-1.07,7.73-1.62,11.67-1.81,3.94-.17,7.91.02,11.79.75Z"
          style="fill:#4d2600; stroke-width:0px;"/>
    <path d="M56.76,38.07c.55-.32,1.09-.37,1.62-.36.53.04,1.07.14,1.58.51-.55.32-1.09.37-1.62.36-.53-.04-1.06-.14-1.58-.51Z"
          style="fill:#4d2600; stroke-width:0px;"/>
    <path d="M20.41,38.15c2.74-.31,5.49-.5,8.24-.64,2.75-.15,5.51-.21,8.26-.24,2.76,0,5.51.01,8.26.13,2.75.11,5.51.26,8.25.54-2.76.08-5.51.1-8.26.13l-8.25.07-8.25.04c-2.75,0-5.5.03-8.26-.02Z"
          style="fill:#4d2600; stroke-width:0px;"/>
    <path d="M19.04,46.35l9.87.05c3.29.02,6.57.07,9.85.04,3.28.04,6.57,0,9.85,0l9.87-.02c-3.28.34-6.56.53-9.85.68-3.29.14-6.58.18-9.87.2-3.29-.04-6.58-.08-9.87-.24-3.29-.16-6.57-.37-9.85-.71Z"
          style="fill:#4d2600; stroke-width:0px;"/>
    <path d="M24.13,54.6c2.57.31,5.13.59,7.7.77,2.57.17,5.14.28,7.71.27,2.57,0,5.14-.11,7.71-.27,2.57-.18,5.13-.46,7.7-.77-2.5.66-5.06,1.12-7.64,1.44-2.58.33-5.17.47-7.77.48-2.6,0-5.2-.15-7.77-.47-2.58-.32-5.13-.77-7.64-1.43Z"
          style="fill:#4d2600; stroke-width:0px;"/>
    <path d="M41.59,17.84c.9-.09,1.78.42,2.32,1.14.54.73.76,1.73.41,2.55-.35-.81-.66-1.45-1.1-2.04-.43-.6-.95-1.09-1.63-1.66Z"
          style="fill:#4d2600; stroke-width:0px;"/>
    <path d="M39.44,12.38c.3,1.76.39,3.53.42,5.29,0,.23-.18.42-.41.42h-.02s-.86.01-.86.01c-.26,0-.51.03-.76.08-.5.12-.98.32-1.4.63-.85.6-1.46,1.58-1.66,2.72-.21-1.15.27-2.45,1.21-3.29.47-.41,1.04-.73,1.66-.88.31-.08.63-.12.94-.13h.87s-.42.43-.42.43c.03-1.76.12-3.53.42-5.29Z"
          style="fill:#4d2600; stroke-width:0px;"/>
    <path d="M19.28,22.47c.02.9-.69,1.82-1.73,1.94-.51.06-1.07-.1-1.49-.46-.42-.36-.67-.92-.68-1.49,0-.57.25-1.13.67-1.49.42-.36.98-.52,1.49-.46,1.04.12,1.75,1.04,1.73,1.95ZM19.28,22.47c0-.45-.21-.9-.55-1.18-.34-.28-.78-.39-1.18-.33-.81.13-1.31.84-1.3,1.51-.01.67.48,1.39,1.3,1.51.4.06.84-.05,1.18-.33.34-.28.54-.73.55-1.18Z"
          style="fill:#4d2600; stroke-width:0px;"/>
    <path d="M25.8,19.83c.02.9-.69,1.82-1.73,1.94-.51.06-1.07-.1-1.49-.46-.42-.36-.67-.92-.68-1.49,0-.57.25-1.13.67-1.49.42-.36.98-.52,1.49-.46,1.04.12,1.75,1.04,1.73,1.95ZM25.8,19.83c0-.45-.21-.9-.55-1.18-.34-.28-.78-.39-1.18-.33-.81.13-1.31.84-1.3,1.51-.01.67.48,1.39,1.3,1.51.4.06.84-.05,1.18-.33.34-.28.54-.73.55-1.18Z"
          style="fill:#4d2600; stroke-width:0px;"/>
    <path d="M25.8,12.6c-2.32.95-4.33,1.88-6.38,2.62l.27-.38c.02.88.02,1.76.03,2.64l-.57-.41c2.17-.74,4.36-1.44,6.58-2.05l-.15.22c.07-.82.17-1.67.23-2.64ZM25.8,12.6c.06.79.16,1.7.23,2.64,0,.09-.05.17-.13.2h-.03c-2.12.89-4.28,1.69-6.44,2.44-.22.08-.47-.04-.55-.26-.02-.05-.02-.1-.02-.15.01-.88,0-1.76.03-2.64v-.02c0-.17.12-.31.27-.36,2.29-.75,4.62-1.32,6.64-1.86Z"
          style="fill:#4d2600; stroke-width:0px;"/>
    <path d="M19.28,17.49c.34.78.42,1.56.43,2.34-.01.78-.09,1.56-.43,2.34-.34-.78-.42-1.56-.43-2.34.01-.78.09-1.56.43-2.34Z"
          style="fill:#4d2600; stroke-width:0px;"/>
    <path d="M25.8,15.05c.34.78.42,1.56.43,2.34-.01.78-.09,1.56-.43,2.34-.34-.78-.42-1.56-.43-2.34.01-.78.09-1.56.43-2.34Z"
          style="fill:#4d2600; stroke-width:0px;"/>
    <path d="M56.66,66.32c.02.9-.69,1.82-1.73,1.94-.51.06-1.07-.1-1.49-.46-.42-.36-.67-.92-.68-1.49,0-.57.25-1.13.67-1.49.42-.36.98-.52,1.49-.46,1.04.12,1.75,1.04,1.73,1.95ZM56.66,66.32c0-.45-.21-.9-.55-1.18-.34-.28-.78-.39-1.18-.33-.81.13-1.31.84-1.3,1.51-.01.67.48,1.39,1.3,1.51.4.06.84-.05,1.18-.33.34-.28.54-.73.55-1.18Z"
          style="fill:#4d2600; stroke-width:0px;"/>
    <path d="M63.17,63.67c.02.9-.69,1.82-1.73,1.94-.51.06-1.07-.1-1.49-.46-.42-.36-.67-.92-.68-1.49,0-.57.25-1.13.67-1.49.42-.36.98-.52,1.49-.46,1.04.12,1.75,1.04,1.73,1.95ZM63.17,63.67c0-.45-.21-.9-.55-1.18-.34-.28-.78-.39-1.18-.33-.81.13-1.31.84-1.3,1.51-.01.67.48,1.39,1.3,1.51.4.06.84-.05,1.18-.33.34-.28.54-.73.55-1.18Z"
          style="fill:#4d2600; stroke-width:0px;"/>
    <path d="M63.17,56.45c-2.32.95-4.33,1.88-6.38,2.62l.27-.38c.02.88.02,1.76.03,2.64l-.57-.41c2.17-.74,4.36-1.44,6.58-2.05l-.15.22c.07-.82.17-1.67.23-2.64ZM63.17,56.45c.06.79.16,1.7.23,2.64,0,.09-.05.17-.13.2h-.03c-2.12.89-4.28,1.69-6.44,2.44-.22.08-.47-.04-.55-.26-.02-.05-.02-.1-.02-.15.01-.88,0-1.76.03-2.64v-.02c0-.17.12-.31.27-.36,2.29-.75,4.62-1.32,6.64-1.86Z"
          style="fill:#4d2600; stroke-width:0px;"/>
    <path d="M56.66,61.33c.34.78.42,1.56.43,2.34-.01.78-.09,1.56-.43,2.34-.34-.78-.42-1.56-.43-2.34.01-.78.09-1.56.43-2.34Z"
          style="fill:#4d2600; stroke-width:0px;"/>
    <path d="M63.17,58.89c.34.78.42,1.56.43,2.34-.01.78-.09,1.56-.43,2.34-.34-.78-.42-1.56-.43-2.34.01-.78.09-1.56.43-2.34Z"
          style="fill:#4d2600; stroke-width:0px;"/>
    <path d="M62.73,29.85c-1.06.08-2.13.18-3.16.42-1.02.24-2.02.66-2.71,1.4-.67.76-.98,1.77-1.12,2.8-.14,1.03-.13,2.09-.09,3.15l-.66.02c-.06-1.05-.14-2.11-.34-3.12-.21-1-.59-1.96-1.28-2.63-.71-.64-1.68-.96-2.7-1.11-1.02-.15-2.07-.15-3.12-.13l-.02-.86c1.05-.03,2.1-.09,3.11-.28,1-.19,1.96-.56,2.64-1.24.65-.7.99-1.68,1.15-2.69.16-1.02.19-2.07.19-3.13l.66-.02c.01,1.06.06,2.11.24,3.14.18,1.02.54,2.01,1.25,2.74.72.71,1.74,1.08,2.77,1.27,1.04.19,2.11.24,3.18.27ZM62.73,29.85c-1.07.06-2.14.09-3.21-.04-1.06-.13-2.17-.44-3.03-1.19-.83-.79-1.26-1.88-1.49-2.94-.23-1.07-.32-2.15-.37-3.23,0-.18.13-.34.31-.35.18,0,.34.13.35.31h0s0,.02,0,.02c.04,1.08.04,2.17-.12,3.26-.16,1.08-.51,2.23-1.32,3.12-.84.86-1.97,1.28-3.04,1.5-1.09.22-2.18.29-3.26.33-.24,0-.44-.18-.45-.41,0-.24.18-.44.41-.45h.01c1.08,0,2.17,0,3.27.18,1.08.17,2.23.54,3.11,1.36.85.85,1.25,1.98,1.46,3.05.22,1.09.26,2.17.27,3.25h0c0,.2-.14.35-.33.35s-.33-.14-.34-.33h0c0-1.08.03-2.17.22-3.25.18-1.07.55-2.18,1.35-3.01.83-.79,1.92-1.16,2.97-1.34,1.06-.18,2.14-.21,3.21-.2Z"
          style="fill:#4d2600; stroke-width:0px;"/>
</svg>
