<?xml version="1.0" encoding="UTF-8"?>
<svg id="b" xmlns="http://www.w3.org/2000/svg" viewBox="0 0 80 80">
    <path d="M75.97,38.39c6.38-10.64-8.84-25.43-16.39-30.36C46.7-.38,30.82,1.16,18.35,9.01-6.25,24.47-.63,62.09,24.28,73.99c-2.85-1.5,5.8,2.09,6.79,3.03-.21-1.2-1.14-1.67-2.79-1.41,2.33.66,4.63.99,7,1.41-.91.02-1.8-.11-2.67-.39,1.48-.31,6.88,1.26,9.48.94.04.02,7.84-1.72,6.7-1.69.5.14.86-.03,1.09-.5.23.36.04.59-.58.67,1-.25,3.08-.69,3.72-1.63-1.04.21-2.02.71-3.07.87,1.57-2.27,5.97-2.47,8.41-3.14-.51.95-2.75,1.38-3.73,1.8,2.75-.81,16.5-5.98,14.11-9.43-3.51.61-4.18,3.43-8.47,4.01-.27-.84.07-1.48,1-1.92-1.33.42-2.65.9-3.93,1.45,2.33-1.5,6.02-3.72,8.02-6.09-.75.48-1.5.79-2.2,1.35,6.99-7.15,10.41-17.42,9.15-27.33-.03,4.66,1.19,5.45,3.66,2.39ZM58.74,72.05"
          style="fill:#fecdd3; stroke-width:0px;"/>
    <path d="M19.05,61.1c-.34-2.68-.42-5.35-.43-8.03.01-2.68.09-5.35.43-8.03.34,2.68.42,5.35.43,8.03-.01,2.68-.09,5.35-.43,8.03Z"
          style="fill:#4d2600; stroke-width:0px;"/>
    <path d="M60.14,41.82c.34,2.78.42,5.55.43,8.33-.01,2.78-.09,5.55-.43,8.33-.34-2.78-.42-5.55-.43-8.33.01-2.78.09-5.55.43-8.33Z"
          style="fill:#4d2600; stroke-width:0px;"/>
    <path d="M27.49,40.56c-.34-1.49-.42-2.99-.44-4.48.01-1.49.08-2.99.42-4.48.35,1.49.42,2.99.44,4.48-.01,1.49-.09,2.99-.42,4.48Z"
          style="fill:#4d2600; stroke-width:0px;"/>
    <path d="M43.36,22.66l5.07,3.39c1.69,1.13,3.37,2.27,5.05,3.43l-.4.21-.06-4.38.13.26c-4.63-3.15-9.19-6.4-13.79-9.59h.49c-2.27,1.63-4.58,3.22-6.87,4.83l-6.89,4.81.16-.3-.05,4.38-.5-.26c4.61-3.17,9.24-6.33,13.91-9.42-4.48,3.36-9.01,6.66-13.54,9.94-.14.1-.34.07-.44-.07-.04-.06-.06-.12-.06-.18h0s-.05-4.39-.05-4.39c0-.12.06-.23.15-.3h0s6.84-4.87,6.84-4.87c2.28-1.62,4.55-3.26,6.85-4.85h0c.15-.11.34-.1.48,0,4.55,3.26,9.14,6.46,13.67,9.76h0c.08.07.13.16.13.26l-.06,4.38h0c0,.15-.12.26-.26.26-.05,0-.1-.02-.15-.05-1.65-1.19-3.29-2.39-4.92-3.6l-4.9-3.64Z"
          style="fill:#4d2600; stroke-width:0px;"/>
    <path d="M43.64,32.47c.05,2.13-1.76,4.18-4.04,4.26-1.11.06-2.27-.35-3.12-1.14-.85-.79-1.35-1.95-1.35-3.12,0-1.17.5-2.33,1.35-3.12.85-.79,2.01-1.19,3.12-1.14,2.28.08,4.09,2.13,4.04,4.26ZM43.64,32.47c0-1.06-.46-2.11-1.23-2.81-.77-.71-1.81-1.07-2.81-1.01-2.05.08-3.65,1.92-3.61,3.82-.04,1.9,1.56,3.75,3.61,3.83,1,.06,2.05-.3,2.82-1.01.77-.71,1.22-1.76,1.23-2.82Z"
          style="fill:#4d2600; stroke-width:0px;"/>
    <path d="M39.6,28.43c.34,1.35.42,2.69.43,4.04-.01,1.35-.09,2.69-.43,4.04-.34-1.35-.42-2.69-.43-4.04.01-1.35.09-2.69.43-4.04Z"
          style="fill:#4d2600; stroke-width:0px;"/>
    <path d="M43.64,32.47c-1.35.34-2.69.42-4.04.43-1.35-.01-2.69-.09-4.04-.43,1.35-.34,2.69-.42,4.04-.43,1.35.01,2.69.09,4.04.43Z"
          style="fill:#4d2600; stroke-width:0px;"/>
    <path d="M20.57,48.98c-.19-.71.03-1.54.55-2.14.51-.62,1.32-.98,2.14-.98.82,0,1.63.37,2.14.98.52.6.74,1.44.55,2.14-.35-1.41-1.5-2.27-2.69-2.26-1.19-.01-2.35.85-2.69,2.26Z"
          style="fill:#4d2600; stroke-width:0px;"/>
    <path d="M23.26,46.28c.34,1.63.42,3.26.43,4.88-.01,1.63-.09,3.26-.43,4.88-.34-1.63-.42-3.26-.43-4.88.01-1.63.09-3.26.43-4.88Z"
          style="fill:#4d2600; stroke-width:0px;"/>
    <path d="M25.96,48.98c.3,2.36.39,4.71.42,7.07,0,.23-.18.42-.41.42h-.01c-1.8.02-3.59,0-5.39-.1h-.03c-.17-.01-.29-.15-.28-.32.06-1.21.16-2.42.32-3.63.15,1.21.25,2.42.32,3.63l-.32-.32c1.8-.1,3.59-.13,5.39-.1l-.42.42c.03-2.36.13-4.71.42-7.07Z"
          style="fill:#4d2600; stroke-width:0px;"/>
    <path d="M53.24,48.98c-.19-.71.03-1.54.55-2.14.51-.62,1.32-.98,2.14-.98.82,0,1.63.37,2.14.98.52.6.74,1.44.55,2.14-.35-1.41-1.5-2.27-2.69-2.26-1.19-.01-2.35.85-2.69,2.26Z"
          style="fill:#4d2600; stroke-width:0px;"/>
    <path d="M55.93,46.28c.34,1.63.42,3.26.43,4.88-.01,1.63-.09,3.26-.43,4.88-.34-1.63-.42-3.26-.43-4.88.01-1.63.09-3.26.43-4.88Z"
          style="fill:#4d2600; stroke-width:0px;"/>
    <path d="M58.63,51.98c.16,1.36.27,2.71.33,4.07,0,.18-.13.32-.3.33h-.03c-1.8.08-3.59.12-5.39.09h-.01c-.23,0-.41-.19-.41-.42.03-2.36.13-4.71.42-7.07.29,2.36.39,4.71.42,7.07l-.42-.42c1.8-.03,3.59,0,5.39.09l-.33.33c.06-1.36.17-2.71.33-4.07Z"
          style="fill:#4d2600; stroke-width:0px;"/>
    <path d="M45.49,51.67c.34,1.57.42,3.14.43,4.71-.01,1.57-.09,3.14-.43,4.71-.34-1.57-.42-3.14-.43-4.71.01-1.57.09-3.14.43-4.71Z"
          style="fill:#4d2600; stroke-width:0px;"/>
    <path d="M33.7,58.49c-.18-2.38-.26-4.75-.33-7.13l-.05-1.78c0-.59-.04-1.18.01-1.83.13-1.26.67-2.49,1.51-3.44.84-.95,1.98-1.65,3.22-1.94,1.23-.29,2.56-.21,3.72.29,1.17.47,2.15,1.32,2.83,2.35.65,1.05.97,2.28.87,3.47-.15-2.39-1.8-4.49-3.93-5.2-2.13-.74-4.62-.09-6.06,1.6-.74.82-1.2,1.87-1.35,2.97-.1,1.09-.05,2.35-.12,3.52-.07,2.38-.15,4.75-.33,7.13Z"
          style="fill:#4d2600; stroke-width:0px;"/>
    <path d="M39.6,45.48c.34,2.6.42,5.21.43,7.81-.01,2.6-.09,5.21-.43,7.81-.34-2.6-.42-5.21-.43-7.81.01-2.6.09-5.21.43-7.81Z"
          style="fill:#4d2600; stroke-width:0px;"/>
    <path d="M16.4,39.15l.21,4.38-.33-.17,2.71-2c.91-.66,1.8-1.34,2.72-1.98l5.48-3.89-.18.35.04-4.38.62.32c-1.82,1.26-3.66,2.49-5.54,3.7-1.86,1.23-3.77,2.44-5.72,3.66ZM16.4,39.15c1.73-1.34,3.49-2.69,5.31-4.03,1.8-1.35,3.64-2.68,5.5-3.99.18-.12.42-.08.55.1.05.07.07.15.07.23l.04,4.38c0,.15-.07.28-.18.35l-5.55,3.8c-.92.64-1.87,1.24-2.8,1.86l-2.81,1.85h-.01c-.09.07-.22.04-.28-.05-.02-.04-.03-.08-.03-.12l.21-4.38Z"
          style="fill:#4d2600; stroke-width:0px;"/>
    <path d="M62.8,39.15l.21,4.38c0,.11-.08.21-.19.21-.04,0-.09-.01-.12-.03h-.01s-2.81-1.85-2.81-1.85c-.93-.62-1.88-1.22-2.8-1.86l-5.55-3.8c-.12-.08-.19-.22-.18-.35l.04-4.38c0-.22.18-.39.39-.39.08,0,.16.03.23.07,1.86,1.3,3.7,2.64,5.5,3.99,1.82,1.33,3.59,2.69,5.31,4.03ZM62.8,39.15c-1.95-1.22-3.86-2.43-5.72-3.66-1.88-1.22-3.72-2.44-5.54-3.7l.62-.32.04,4.38-.18-.35,5.48,3.89c.92.64,1.81,1.32,2.72,1.98l2.71,2-.33.17.21-4.38Z"
          style="fill:#4d2600; stroke-width:0px;"/>
    <path d="M16.19,61.1c2.74-.18,5.49-.26,8.23-.33,2.74-.08,5.49-.09,8.23-.1,2.74,0,5.49.02,8.23.1,2.74.07,5.49.15,8.23.33-2.74.18-5.49.26-8.23.33-2.74.08-5.49.09-8.23.1-2.74-.01-5.49-.02-8.23-.1-2.74-.07-5.49-.15-8.23-.33Z"
          style="fill:#4d2600; stroke-width:0px;"/>
    <path d="M54.55,61.1c1.41-.34,2.82-.42,4.23-.43,1.41.01,2.82.09,4.23.43-1.41.34-2.82.42-4.23.43-1.41-.01-2.82-.09-4.23-.43Z"
          style="fill:#4d2600; stroke-width:0px;"/>
</svg>
