<?xml version="1.0" encoding="UTF-8"?>
<svg id="b" xmlns="http://www.w3.org/2000/svg" viewBox="0 0 80 80">
    <path d="M76.47,38.13c.1-.08.19-.18.26-.28.98-1.27.84-3.05.55-4.63-1.86-10.08-8-19.31-16.6-24.9C52.09,2.73,41.17.84,31.2,3.23,10.8,8.14-1.4,29.12,3.63,49.31c.97,3.89,2.54,7.62,4.7,11,7.4,11.55,21.43,18.49,35.1,17.35,3.02-.25,6.07-.88,8.71-2.36,1.25-.7,2.46-1.6,3.89-1.7.33-.02.73.04.85.35.12.3-.43.62-.52.3,3.98-1.07,7.72-2.97,10.93-5.55.88-.7,1.8-1.82,1.29-2.83-2.87,1.72-6.22,2.65-9.57,2.65,8.79-7.7,14-19.33,13.9-31.02.32,1.44,2.45,1.6,3.55.63ZM58.82,73.1"
          style="fill:#fecdd3; stroke-width:0px;"/>
    <path d="M53.47,52.3c1.55-1.18,2.63-2.96,2.85-4.87.26-1.91-.27-3.83-.93-5.63-.77-1.78-1.42-3.68-1.77-5.62-.36-1.95-.46-3.94-.27-5.92l.03.19-1.49-3.44.36.24-12.23.05.43-.56c.92,3.37.98,6.97.24,10.37-.35,1.7-.99,3.38-1.61,4.93-.29.79-.52,1.59-.66,2.42-.19.81-.22,1.64-.18,2.45.11,1.63.8,3.22,1.96,4.39,1.17,1.18,2.7,1.93,4.36,2.35.89.29,1.58,1.04,1.85,1.9.14.43.15.91.13,1.32l-.03,1.28-.05,2.57c-.03.43.01.85-.07,1.29-.12.43-.55.74-.98.72.43,0,.83-.33.91-.74.05-.4,0-.85,0-1.27l-.05-2.57-.03-1.28c0-.44-.03-.83-.17-1.21-.27-.76-.9-1.37-1.66-1.59-1.66-.38-3.35-1.13-4.62-2.37-1.29-1.23-2.1-2.96-2.25-4.74-.16-1.79.24-3.55.81-5.19.64-1.63,1.21-3.17,1.54-4.83.7-3.29.59-6.73-.29-9.97-.07-.23.07-.48.31-.54.04-.01.08-.02.12-.02l12.23.05c.16,0,.3.1.36.24l1.46,3.45h0c.03.06.03.13.03.19-.21,1.9-.17,3.84.13,5.74.29,1.91.87,3.74,1.6,5.56.34.93.58,1.89.73,2.87.16.98.18,1.99.01,2.96-.3,1.97-1.5,3.74-3.12,4.83Z"
          style="fill:#4d2600; stroke-width:0px;"/>
    <path d="M42.22,62.73c-.85.05-1.7.09-2.55.12-.41-.02-.75.2-.88.54-.13.33,0,.73.27.92.14.1.3.15.46.15h.63s1.28-.04,1.28-.04l2.55-.06c3.4-.07,6.8-.07,10.21-.1h.64s.32,0,.32,0c.11,0,.13,0,.2-.02.23-.06.41-.28.41-.52,0-.24-.17-.48-.41-.54-.08-.04-.31-.02-.53-.03h-.64s-2.55-.03-2.55-.03h-1.28s-.64-.03-.64-.03c-.21-.02-.41.02-.72-.06-.56-.15-.97-.7-.95-1.27l.03-1.28.06-2.55.05-1.28c0-.42.07-.89.25-1.29.34-.82,1.08-1.45,1.92-1.62-.81.27-1.44.93-1.7,1.7-.14.39-.16.78-.14,1.21l.05,1.28.06,2.55.03,1.27c0,.29.23.55.5.61l5.01-.04h.64c.21,0,.41-.04.74.04.6.14,1.05.72,1.05,1.34.02.62-.42,1.21-1.02,1.37-.14.05-.33.06-.43.06h-.32s-.64,0-.64,0c-3.4-.04-6.8-.03-10.21-.1l-2.55-.06-1.28-.03-.64-.02c-.26-.01-.52-.11-.72-.28-.4-.34-.53-.94-.3-1.39.2-.46.75-.71,1.19-.64.85.03,1.7.07,2.55.12Z"
          style="fill:#4d2600; stroke-width:0px;"/>
    <path d="M42.15,35.63c.47.12.96.24,1.42.43.45.19.89.41,1.32.61.86.41,1.7.76,2.59.83.89.1,1.8-.04,2.69-.28.89-.26,1.76-.66,2.62-1.13-1.26,1.5-3.29,2.49-5.4,2.3-1.05-.1-2.03-.56-2.84-1.11-.41-.27-.8-.56-1.19-.84-.39-.28-.8-.51-1.21-.81Z"
          style="fill:#4d2600; stroke-width:0px;"/>
    <path d="M46.7,41.53c.01.68-.49,1.4-1.3,1.53-.4.06-.85-.05-1.19-.33-.34-.28-.55-.74-.56-1.19,0-.46.21-.91.56-1.19.34-.29.8-.4,1.19-.33.82.13,1.32.85,1.3,1.53ZM46.7,41.53c0-.34-.16-.68-.43-.88-.26-.2-.6-.27-.88-.2-.58.14-.87.64-.86,1.08,0,.44.28.95.86,1.08.28.06.62,0,.88-.2.26-.2.42-.54.43-.88Z"
          style="fill:#4d2600; stroke-width:0px;"/>
    <path d="M48.33,51.32c0,.5-.33,1.06-.98,1.2-.31.06-.68-.01-.96-.24-.28-.22-.46-.59-.46-.96,0-.37.18-.74.46-.96.28-.23.65-.3.96-.24.65.14.99.7.98,1.2ZM48.33,51.32c.02-.55-.58-.92-.98-.75-.41.14-.54.49-.53.75,0,.26.13.61.53.76.4.16,1-.21.98-.76Z"
          style="fill:#4d2600; stroke-width:0px;"/>
    <path d="M50.62,46.59c.01.68-.49,1.4-1.3,1.53-.4.06-.85-.05-1.19-.33-.34-.28-.55-.74-.56-1.19,0-.46.21-.91.56-1.19.34-.29.8-.4,1.19-.33.82.13,1.32.85,1.3,1.53ZM50.62,46.59c0-.34-.16-.68-.43-.88-.26-.2-.6-.27-.88-.2-.58.14-.87.64-.86,1.08,0,.44.28.95.86,1.08.28.06.62,0,.88-.2.26-.2.42-.54.43-.88Z"
          style="fill:#4d2600; stroke-width:0px;"/>
    <path d="M48.73,25.32c.22-1.1.78-2.15,1.58-2.98.81-.82,1.86-1.43,3.01-1.71,2.29-.6,4.91.24,6.45,2.1,1.56,1.83,1.98,4.54,1.01,6.71-.48,1.08-1.24,2.01-2.19,2.68-.96.64-2.08,1.03-3.2,1.06,2.2-.42,4.05-2,4.75-4,.72-1.99.31-4.3-1.05-5.88-1.32-1.62-3.55-2.38-5.62-2.01-2.09.35-3.94,1.93-4.73,4.02Z"
          style="fill:#4d2600; stroke-width:0px;"/>
    <path d="M51.05,32.03c-.75-.11-1.34-.59-1.77-1.16-.4-.58-.66-1.3-.52-2.05.53.53.87,1.03,1.25,1.53.35.52.71,1,1.04,1.67Z"
          style="fill:#4d2600; stroke-width:0px;"/>
    <path d="M54.69,28.56c.35.15.43.3.45.45-.01.15-.09.3-.45.45-.35-.15-.43-.3-.45-.45.02-.15.09-.3.45-.45Z"
          style="fill:#4d2600; stroke-width:0px;"/>
    <path d="M54.69,22.45c.35.41.43.82.45,1.22-.01.41-.09.82-.45,1.22-.35-.41-.43-.82-.45-1.22.02-.41.09-.82.45-1.22Z"
          style="fill:#4d2600; stroke-width:0px;"/>
    <path d="M59.26,27.01c-.41.35-.82.43-1.22.45-.41-.01-.82-.09-1.22-.45.41-.35.82-.43,1.22-.45.41.02.82.09,1.22.45Z"
          style="fill:#4d2600; stroke-width:0px;"/>
    <path d="M56,28.32c.57.07.95.34,1.28.65.31.33.58.71.65,1.28-.57-.07-.95-.34-1.28-.65-.31-.33-.57-.71-.65-1.28Z"
          style="fill:#4d2600; stroke-width:0px;"/>
    <path d="M51.47,23.79c.52.02.84.23,1.11.48.26.28.47.6.48,1.11-.52-.02-.84-.23-1.11-.48-.26-.28-.47-.6-.48-1.11Z"
          style="fill:#4d2600; stroke-width:0px;"/>
    <path d="M57.92,23.79c-.04.54-.28.89-.57,1.2-.3.28-.65.52-1.2.57.04-.54.28-.89.57-1.2.3-.28.65-.52,1.2-.57Z"
          style="fill:#4d2600; stroke-width:0px;"/>
    <path d="M21.37,64.69c4.39-.15,8.77-.25,13.16-.31l-.31.29c.06-4.04.21-8.08.33-12.12.11-4.04.27-8.08.45-12.12l.25-6.06.07-1.51c.02-.51.08-1.02.02-1.45-.12-.89-.73-1.71-1.56-2.09-.44-.2-.84-.24-1.39-.27-.55-.05-1.08-.25-1.53-.55-.91-.61-1.45-1.7-1.41-2.77l.18-6.06.18,6.06c.02.96.54,1.86,1.33,2.36.39.24.84.4,1.31.43.46,0,1.08.04,1.58.27,1.02.43,1.81,1.4,2,2.51.09.58.03,1.08.03,1.58l-.04,1.52-.19,6.06c-.12,4.04-.25,8.08-.44,12.12-.17,4.04-.32,8.08-.55,12.11h0c0,.17-.14.3-.31.29-4.39-.06-8.77-.15-13.16-.31Z"
          style="fill:#4d2600; stroke-width:0px;"/>
    <path d="M23.11,21.63l.12,2.91c.01.49.05.96.04,1.47-.02.51-.17,1.02-.43,1.47-.52.9-1.51,1.53-2.57,1.6-.95,0-1.77.39-2.31,1.09-.26.34-.43.75-.51,1.17-.04.21-.05.42-.04.64l.03.73.13,2.91.25,5.81c.11,3.88.25,7.75.32,11.63.07,3.88.12,7.76.08,11.64-.33-3.87-.55-7.74-.77-11.62-.21-3.87-.35-7.75-.53-11.63l-.17-5.82-.09-2.91-.02-.73c0-.27.01-.54.07-.81.12-.53.36-1.03.7-1.45.35-.41.79-.74,1.28-.95.48-.22,1.07-.27,1.53-.27.88-.02,1.74-.51,2.23-1.27.25-.37.42-.81.46-1.27.04-.46.04-.96.06-1.44l.12-2.91Z"
          style="fill:#4d2600; stroke-width:0px;"/>
    <path d="M31.37,19.67c-1.65.09-3.36.19-5.11.25-1.75.07-3.53.14-5.32.16-.23,0-.41-.18-.42-.41h0s-.03-3.92-.03-3.92c0-.24.19-.44.44-.45h0c1.74,0,3.48.01,5.22.05,1.74.03,3.48.11,5.22.16h.02c.12,0,.22.11.21.23h0c-.07,1.36-.16,2.69-.23,3.92ZM31.37,19.67c-.08-1.38-.16-2.66-.23-3.91l.23.23c-1.74.05-3.48.14-5.22.16-1.74.04-3.48.04-5.22.05l.45-.45-.03,3.91-.42-.42c1.69.02,3.38.09,5.11.16,1.72.06,3.49.17,5.32.25Z"
          style="fill:#4d2600; stroke-width:0px;"/>
    <path d="M17.67,46.1c2.92-.35,5.84-.43,8.75-.45,2.92.01,5.84.09,8.75.45-2.92.35-5.84.43-8.75.45-2.92-.01-5.84-.1-8.75-.45Z"
          style="fill:#4d2600; stroke-width:0px;"/>
    <path d="M34.8,54.58c-2.44.35-4.87.43-7.31.45-2.44-.01-4.87-.09-7.31-.45,2.44-.35,4.87-.43,7.31-.45,2.44.02,4.87.09,7.31.45Z"
          style="fill:#4d2600; stroke-width:0px;"/>
</svg>
