<?xml version="1.0" encoding="UTF-8"?>
<svg id="b" xmlns="http://www.w3.org/2000/svg" viewBox="0 0 80 80">
    <path d="M77.47,32.84c-.09-1.32-.41-2.63-.8-3.9-4.05-13.33-15.96-23.94-29.67-26.41C27.74-.95,8.03,11.6,3.54,30.7c-1.78,7.58-1.29,15.72,1.68,22.94,4.91,11.96,16.43,20.95,29.22,22.82-.44.26-.87.53-1.31.79,2.64,1.23,5.73.81,8.59.24,8.21-1.66,16.19-4.45,23.63-8.28,1.82-.94,3.88-2.39,3.72-4.43-2.6,1.7-5.45,3.02-8.43,3.91-.08-.67.16-1.37.64-1.85-1.05.15-2.07.49-3.01.98,9.58-7.32,15.27-19.48,14.74-31.52.43,1.11.87,2.22,1.3,3.33,1.78-.89,2.85-2.84,3.12-4.81.09-.66.1-1.32.05-1.97Z"
          style="fill:#fecdd3; stroke-width:0px;"/>
    <path d="M28.57,75.7s-.09-.02-.13-.03c.02,0,.07.02.13.03Z" style="fill:#ffada6; stroke-width:0px;"/>
    <path d="M26.66,58.68c-1.94.08-3.93-.52-5.52-1.71-1.57-1.2-2.78-2.94-3.26-4.9-.26-.97-.31-2.02-.29-2.97l-.02-2.91-.04-5.82.02-2.91c0-.97.07-2.03.38-2.99.59-1.93,1.8-3.7,3.48-4.82,1.65-1.15,3.71-1.69,5.67-1.57,1.94.07,3.88.11,5.82.21-1.94.1-3.88.14-5.82.21-1.92-.03-3.78.56-5.28,1.69-1.5,1.11-2.61,2.71-3.11,4.49-.27.9-.32,1.8-.31,2.77l.02,2.91-.04,5.82-.02,2.91c-.02.99,0,1.89.19,2.81.74,3.69,4.22,6.64,8.13,6.77Z"
          style="fill:#4d2600; stroke-width:0px;"/>
    <path d="M55.94,28.87c2.4.8,4.4,2.76,5.31,5.18.48,1.2.58,2.55.57,3.8l.06,3.78c.05,2.52.04,5.04.06,7.56.04,1.24-.06,2.63-.52,3.86-.44,1.25-1.15,2.39-2.08,3.34-.93.94-2.08,1.66-3.32,2.12-1.23.47-2.61.6-3.86.56-2.52-.02-5.04,0-7.56-.06-5.04-.07-10.09-.15-15.13-.34,5.04-.18,10.09-.26,15.13-.34,2.52-.05,5.04-.04,7.56-.06,2.47.12,4.87-.76,6.56-2.49.84-.85,1.5-1.88,1.91-3.01.43-1.14.54-2.31.51-3.58.02-2.52,0-5.04.06-7.56l.06-3.78c.05-1.27,0-2.48-.42-3.66-.74-2.36-2.58-4.34-4.91-5.32Z"
          style="fill:#4d2600; stroke-width:0px;"/>
    <path d="M34.66,32.7c.11-3.83.34-7.65.56-11.47.01-.18.16-.32.34-.33h.01s8.8-.07,8.8-.07c1.47-.02,2.93.01,4.4.02l4.4.03h0c.2,0,.36.15.37.35.16,2.2.26,4.41.4,6.61.12,2.21.22,4.41.28,6.62-.28-2.19-.54-4.39-.77-6.58-.22-2.2-.47-4.39-.66-6.59l.38.35-4.4.03c-1.47,0-2.93.04-4.4.02l-8.8-.07.35-.33c-.38,3.81-.77,7.62-1.27,11.42Z"
          style="fill:#4d2600; stroke-width:0px;"/>
    <path d="M18.87,53.83c.56-.05,1.12-.09,1.68-.11.57-.03,1.11-.05,1.59-.27.99-.37,1.74-1.24,1.97-2.23.12-.48.07-1,.07-1.58l-.03-1.68-.02-3.36c0-2.24.02-4.48.1-6.72.01-.55.06-1.15.04-1.65-.04-.51-.2-1.02-.48-1.47-.53-.92-1.55-1.54-2.68-1.63,1.13-.1,2.31.44,3.03,1.39.35.48.58,1.05.67,1.65.07.62.05,1.14.08,1.71.08,2.24.09,4.48.1,6.72l-.02,3.36-.03,1.68c0,.28,0,.55-.02.85-.02.31-.07.61-.17.91-.36,1.18-1.33,2.12-2.48,2.45-.57.18-1.18.13-1.73.09-.56-.03-1.12-.07-1.68-.11Z"
          style="fill:#4d2600; stroke-width:0px;"/>
    <path d="M35.08,38.24c1.13-2.29,3.16-4.14,5.58-5.09,2.42-.94,5.21-.96,7.67-.03,2.47.9,4.56,2.79,5.78,5.13,1.25,2.34,1.55,5.14.92,7.71-.65,2.57-2.27,4.88-4.47,6.35-2.19,1.48-4.93,2.13-7.53,1.76-2.61-.33-5.04-1.7-6.72-3.68-1.67-1.99-2.59-4.57-2.49-7.13.1,2.55,1.1,5.02,2.81,6.84,1.68,1.84,4.03,3.06,6.49,3.3,2.45.25,4.98-.34,7-1.75,2.03-1.39,3.5-3.54,4.07-5.91.61-2.36.36-4.96-.78-7.14-1.11-2.19-3.05-3.93-5.32-4.87-2.28-.95-4.92-1.02-7.28-.2-2.38.79-4.42,2.5-5.73,4.69Z"
          style="fill:#4d2600; stroke-width:0px;"/>
    <path d="M38.44,48.52c-1.27-1.28-2.05-3.05-2.19-4.88-.12-1.84.4-3.73,1.48-5.26,1.06-1.55,2.72-2.67,4.53-3.15,1.82-.5,3.81-.34,5.54.42,1.74.77,3.15,2.19,3.99,3.87.86,1.68,1.08,3.66.65,5.49-.43,1.83-1.51,3.46-2.96,4.59-1.47,1.11-3.32,1.68-5.11,1.6,1.79-.11,3.53-.76,4.84-1.93,1.33-1.14,2.26-2.71,2.57-4.4.29-1.69.11-3.48-.71-4.99-.79-1.51-2.08-2.76-3.64-3.43-1.54-.7-3.33-.88-4.98-.45-1.66.41-3.15,1.42-4.2,2.78-2.17,2.71-2.14,6.95.17,9.75Z"
          style="fill:#4d2600; stroke-width:0px;"/>
    <path d="M44.38,36.87c.84-.18,1.74-.1,2.58.18.84.27,1.61.77,2.25,1.39.63.64,1.12,1.41,1.39,2.25.28.84.36,1.74.17,2.58-.35-1.67-1.07-3.1-2.18-4.21-1.11-1.12-2.55-1.84-4.21-2.18Z"
          style="fill:#4d2600; stroke-width:0px;"/>
    <path d="M48.37,43.27c-.35-1.04-.81-1.85-1.48-2.52-.66-.67-1.48-1.13-2.52-1.48,1.06-.36,2.32.05,3.13.86.82.81,1.22,2.07.86,3.13Z"
          style="fill:#4d2600; stroke-width:0px;"/>
    <path d="M58.9,36.23c.02.92-.7,1.86-1.76,1.98-.52.06-1.09-.1-1.51-.47-.43-.37-.68-.93-.69-1.51,0-.57.26-1.15.69-1.51.42-.37.99-.53,1.51-.47,1.06.12,1.78,1.06,1.76,1.98ZM58.9,36.23c0-.46-.21-.92-.56-1.2-.34-.29-.8-.4-1.2-.34-.83.13-1.34.86-1.33,1.54-.01.69.5,1.42,1.33,1.54.4.06.86-.05,1.2-.34.35-.29.55-.74.56-1.2Z"
          style="fill:#4d2600; stroke-width:0px;"/>
    <path d="M53.5,25.22l-.48-3.95.16.15c-2.93.11-5.87.14-8.8.21l-8.8.06.43-.4-.34,3.96-.41-.44,4.49.04c1.49,0,3,.07,4.52.1l9.24.27ZM53.5,25.22l-4.45.15-4.55.12c-1.53.03-3.06.09-4.61.1l-4.63.04c-.22,0-.41-.18-.41-.4v-.03s0,0,0,0l.29-3.96c.02-.23.21-.4.43-.4l8.8.06c2.93.07,5.87.1,8.8.21h.01c.08,0,.14.07.15.15l.16,3.97Z"
          style="fill:#4d2600; stroke-width:0px;"/>
    <path d="M37.33,30.06c2.35-.34,4.7-.42,7.04-.44,2.35.01,4.7.09,7.04.44-2.35.35-4.7.42-7.04.44-2.35-.01-4.7-.09-7.04-.44Z"
          style="fill:#4d2600; stroke-width:0px;"/>
</svg>
