<?xml version="1.0" encoding="UTF-8"?>
<svg xmlns="http://www.w3.org/2000/svg" viewBox="0 0 40 110">
    <g style="isolation:isolate;">
        <g id="b">
            <g>
                <path d="M24.15,41.38v-2.19h-8.98v2.19h-4.28v63.62h8.29v-49.85c0-.39.32-.71.71-.71h0c.3,0,.54.24.54.54v50.01h8.29v-63.62h-4.57Z"
                      style="fill:#171717; stroke-width:0px;"/>
                <path d="M18.79,66.21c.13-.11.26-.23.39-.34v-10.72c0-.39.32-.71.71-.71.3,0,.54.24.54.54v9.83c3.2-2.66,6.69-5.37,8.29-9.19v-14.24h-4.57v-2.19h-8.98v2.19h-4.28v34.07c2.22-3.42,4.88-6.58,7.9-9.25Z"
                      style="fill:#5a5a5a; mix-blend-mode:multiply; opacity:.43; stroke-width:0px;"/>
                <path d="M31.53,14.56c-.82-1.02-1.81-1.9-2.94-2.56-1.16-.68-2.43-.84-3.65-1.34-1.28-.52-2.31-1.21-2.17-2.69,0,0,.13-1.58.13-1.71,0-.69-1.3-1.25-2.9-1.25s-2.9.56-2.9,1.25c0,.13.18,1.27.2,1.61.08,1.37-.5,1.94-1.72,2.56-.83.42-1.75.53-2.64.77-1.74.48-3.37,1.99-4.47,3.37-.43.53-.41,1.27.21,1.66,4.14,2.53,7.35,6.42,9.02,10.98.54,1.47,4.06,1.46,4.59,0,1.67-4.56,4.88-8.45,9.02-10.98.63-.38.64-1.13.21-1.66Z"
                      style="fill:#7e7e7f; stroke-width:0px;"/>
                <path d="M23.69,19.4c-.83-.72-1.95-.95-2.87-1.5-1.73-1.05-1.6-2.9-1.26-4.67.23-1.2.52-2.33.44-3.56-.1-1.56-.43-3.09-.7-4.62-1.26.13-2.2.63-2.2,1.21,0,.13.18,1.27.2,1.61.08,1.37-.5,1.94-1.72,2.56-.83.42-1.75.53-2.64.77-1.74.48-3.37,1.99-4.47,3.37-.43.53-.41,1.27.21,1.66,4.14,2.53,7.35,6.42,9.02,10.98.54,1.47,4.06,1.46,4.59,0,.71-1.94,1.7-3.76,2.92-5.41-.43-.86-.81-1.77-1.53-2.39Z"
                      style="fill:#7e7e7f; mix-blend-mode:multiply; opacity:.25; stroke-width:0px;"/>
                <path d="M20.15,7.13c.92,0,1.88-.18,2.72-.54.01-.17.02-.3.02-.34,0-.69-1.3-1.25-2.9-1.25s-2.9.56-2.9,1.25c0,.04.02.18.04.36.98.4,1.97.52,3.01.52Z"
                      style="fill:#c2c1c1; stroke-width:0px;"/>
                <path d="M22.89,6.2c-.06-.67-1.33-1.2-2.89-1.2s-2.89.56-2.9,1.25c1.81.66,3.99.68,5.79-.05Z"
                      style="fill:#7e7e7f; mix-blend-mode:multiply; stroke-width:0px;"/>
                <path d="M20,11.38v30.2l-2.39,4.72c-.1.21-.36.29-.56.17l-6.73-3.79,1.26-30.71h3.41l1.57-3.22,3.44,2.63Z"
                      style="fill:#edeadc; stroke-width:0px;"/>
                <path d="M20,41.58l-2.39,4.72c-.1.21-.36.29-.56.17l-6.73-3.79,1.26-30.71,8.42,18.55v11.06Z"
                      style="fill:#171717; stroke-width:0px;"/>
                <path d="M17.25,46.29s-.06,0-.08-.02l-6.6-3.72,1.21-29.58,7.99,17.6v10.95l-2.36,4.67c-.03.06-.09.09-.15.09Z"
                      style="fill:#111110; stroke-width:0px;"/>
                <path d="M2.83,50.01v1.02s1.37-.9,3.57-.51l.12-.51-1.41-3.61-2.27,3.61Z"
                      style="fill:#fff; stroke-width:0px;"/>
                <path d="M14.6,10.48l-3.29,1.1-3.14.71s-.78-.24-.86.47c-.08.71-4.71,14.83-4.86,19.22-.16,4.39.31,17.18.39,18.04,0,0,1.41-1.57,3.69,0,0,0,.86-14.35,1.26-17.02.39-2.67,1.41-4.24,1.41-4.24l.16,5.11-2.98,19.21s1.96,3.69,4.94,0c2.98-3.69,6.12-17.88,6.12-17.88l-2.82-24.71Z"
                      style="fill:#171717; stroke-width:0px;"/>
                <path d="M8.25,48.41c.53-1.48.52-3.06.74-4.61.22-1.53.62-2.91,1.26-4.31.75-1.64,1.54-3.12,1.44-4.98-.09-1.59-.58-3.13-.92-4.67-.55-2.44-.47-4.89-.45-7.36-.16.94-.29,1.88-.49,2.82-.22,1.04-.64,3.46-.64,3.46l.16,5.11-2.98,19.21s.25.46.7.9c-.08-1.89.6-3.9,1.19-5.56Z"
                      style="fill:#171717; mix-blend-mode:multiply; opacity:.28; stroke-width:0px;"/>
                <path d="M16.56,8.75l-1.96,1.73-1.73,2.51,1.84.94-2.86-.71s2.04,15.69,5.57,21.96c0,0-1.1-18.83-1.1-21.73s.24-4.71.24-4.71Z"
                      style="fill:#141414; stroke-width:0px;"/>
                <path d="M17.15,7.91l-.59.84s-.38,2.86.74,4.33c0,0,.91-1.65,2.71-1.71,0,0-1.59-1.06-2.09-1.88-.5-.82-.76-1.59-.76-1.59Z"
                      style="fill:#fff; stroke-width:0px;"/>
                <path d="M28.42,12.03h-3.41l-1.57-3.22-3.44,2.63v.03c-.06,0-.12.04-.12.11v14.03c0,.08.06.11.12.11v15.91l2.39,4.72c.1.21.36.29.56.17l6.73-3.79-1.26-30.71Z"
                      style="fill:#edeadc; stroke-width:0px;"/>
                <path d="M20,41.64l2.39,4.72c.1.21.36.29.56.17l6.73-3.79-1.26-30.71-8.42,18.55v11.06Z"
                      style="fill:#171717; stroke-width:0px;"/>
                <path d="M22.75,46.35s.06,0,.08-.02l6.6-3.72-1.21-29.58-7.99,17.6v10.95l2.36,4.67c.03.06.09.09.15.09Z"
                      style="fill:#111110; stroke-width:0px;"/>
                <path d="M37.17,50.07v1.02s-1.37-.9-3.57-.51l-.12-.51,1.41-3.61,2.27,3.61Z"
                      style="fill:#fff; stroke-width:0px;"/>
                <path d="M25.4,10.54l3.29,1.1,3.14.71s.78-.24.86.47c.08.71,4.71,14.83,4.86,19.22s-.31,17.18-.39,18.04c0,0-1.41-1.57-3.69,0,0,0-.86-14.35-1.26-17.02-.39-2.67-1.41-4.24-1.41-4.24l-.16,5.11,2.98,19.21s-1.96,3.69-4.94,0c-2.98-3.69-6.12-17.88-6.12-17.88l2.82-24.71Z"
                      style="fill:#171717; stroke-width:0px;"/>
                <path d="M28.86,36.16c-.39,1.44.56,3.15.92,4.53.73,2.74,1.14,5.49,2.14,8.16.52,1.38,1.09,2.73,1.69,4.08l-2.95-19,.16-5.11s.04.06.1.17c0-.02,0-.04.01-.05-.25-.46-.31-.98-.46-1.51-.18-.65-.5-1.25-.82-1.84.03,1.11.27,2.2.3,3.31.04,1.26.01,2.55-.14,3.8-.15,1.24-.63,2.29-.95,3.47Z"
                      style="fill:#171717; mix-blend-mode:multiply; opacity:.28; stroke-width:0px;"/>
                <path d="M23.44,8.81l1.96,1.73,1.73,2.51-1.84.94,2.86-.71s-2.04,15.69-5.57,21.96c0,0,1.1-18.83,1.1-21.73s-.24-4.71-.24-4.71Z"
                      style="fill:#141414; stroke-width:0px;"/>
                <path d="M22.85,7.97l.59.84s.38,2.86-.74,4.33c0,0-.91-1.65-2.71-1.71,0,0,1.59-1.06,2.09-1.88.5-.82.76-1.59.76-1.59Z"
                      style="fill:#fff; stroke-width:0px;"/>
                <path d="M19.88,11.68v18.3c0,.15.24.15.24,0V11.68c0-.15-.24-.15-.24,0Z"
                      style="fill:#fff; stroke-width:0px;"/>
                <path d="M20.32,12.31s.04-.09.09-.09.09.04.09.09-.04.09-.09.09-.09-.04-.09-.09Z"
                      style="fill:#fff; stroke-width:0px;"/>
                <path d="M20.32,14.74s.04-.09.09-.09.09.04.09.09-.04.09-.09.09-.09-.04-.09-.09Z"
                      style="fill:#fff; stroke-width:0px;"/>
                <path d="M20.32,17.18s.04-.09.09-.09.09.04.09.09-.04.09-.09.09-.09-.04-.09-.09Z"
                      style="fill:#fff; stroke-width:0px;"/>
                <path d="M20.32,19.61s.04-.09.09-.09.09.04.09.09-.04.09-.09.09-.09-.04-.09-.09Z"
                      style="fill:#fff; stroke-width:0px;"/>
                <path d="M20.32,22.04s.04-.09.09-.09.09.04.09.09-.04.09-.09.09-.09-.04-.09-.09Z"
                      style="fill:#fff; stroke-width:0px;"/>
                <path d="M20.32,24.47s.04-.09.09-.09.09.04.09.09-.04.09-.09.09-.09-.04-.09-.09Z"
                      style="fill:#fff; stroke-width:0px;"/>
                <path d="M20.32,26.9s.04-.09.09-.09.09.04.09.09-.04.09-.09.09-.09-.04-.09-.09Z"
                      style="fill:#fff; stroke-width:0px;"/>
                <circle cx="20.97" cy="32.22" r=".43" style="fill:#141414; stroke-width:0px;"/>
                <path d="M20.54,34.59c0-.24.19-.43.43-.43s.43.19.43.43-.19.43-.43.43-.43-.19-.43-.43Z"
                      style="fill:#141414; stroke-width:0px;"/>
                <path d="M20.54,36.95c0-.24.19-.43.43-.43s.43.19.43.43-.19.43-.43.43-.43-.19-.43-.43Z"
                      style="fill:#141414; stroke-width:0px;"/>
                <path d="M20.54,39.62c0-.24.19-.43.43-.43s.43.19.43.43-.19.43-.43.43-.43-.19-.43-.43Z"
                      style="fill:#141414; stroke-width:0px;"/>
            </g>
            <path d="M22.29,11.06c-.2-.33-.53-.23-.82-.09-.34.16-.67.33-1,.51-.03.02-.06.03-.08.05-.02,0-.03.02-.04.03-.06-.1-.16-.17-.28-.19-.01,0-.03,0-.04,0,0,0-.01,0-.02,0,0,0,0,0-.01,0,0,0,0,0-.01,0,0,0-.01,0-.02,0-.01,0-.03,0-.04,0-.12.02-.22.09-.28.19-.01-.01-.03-.02-.04-.03-.02-.02-.05-.04-.08-.05-.33-.17-.66-.34-1-.51-.28-.14-.62-.24-.82.09-.16.26-.08.63-.03.91.05.29.13.73.41.89.31.17.66,0,.94-.15.22-.12.49-.22.66-.41.07.07.18.12.29.13,0,0,.01,0,.02,0,0,0,.01,0,.02,0,.11,0,.21-.05.29-.13.17.19.44.3.66.41.28.15.63.32.94.15.28-.16.36-.59.41-.89.05-.28.13-.65-.03-.91Z"
                  style="fill:#171717; stroke-width:0px;"/>
            <polygon points="26.83 21.2 29.44 21.2 29.44 21.77 26.72 21.77 26.83 21.2"
                     style="fill:#141414; stroke-width:0px;"/>
            <path d="M26.83,21.2s.73-1.69,1.61-2.48c0,0,.72.69,1,2.48h-2.61Z" style="fill:#e2dec7; stroke-width:0px;"/>
            <path d="M27.98,20.06c.2-.3.53-.88.38-1.26-.77.75-1.41,2.15-1.52,2.37.45-.29.83-.65,1.14-1.11Z"
                  style="fill:#e7e3d0; mix-blend-mode:multiply; stroke-width:0px;"/>
            <path d="M28.39,20.33c-.21.33-.47.62-.77.87h.71c.08-.29.12-.59.06-.87Z"
                  style="fill:#e7e3d0; mix-blend-mode:multiply; stroke-width:0px;"/>
        </g>
    </g>
</svg>
