<?xml version="1.0" encoding="UTF-8"?>
<svg id="b" xmlns="http://www.w3.org/2000/svg" viewBox="0 0 80 80">
    <path d="M76.46,38.45c.1-.12.19-.25.28-.38.65-1.05.77-2.34.77-3.57,0-7.72-4.22-14.96-9.78-20.32C58.6,5.37,45.31.83,32.81,2.97,12.74,6.41-.31,26.08,3.02,45.88c.65,3.85,1.86,7.6,3.64,11.07,4.8,9.4,13.63,16.68,23.78,19.57-.51-.19-1.01-.37-1.52-.56,1.33.31,2.65.62,3.98.93.61.14,7.89.81,9.87.61,1.74-.17,3.46-.47,5.16-.9,1.46-.37,3.18-1.38,4.64-1.51-.72.06-1.43.13-2.15.19,2.16-1.66,4.87-2.59,7.59-2.61-.75.67-1.68,1.14-2.66,1.36,4.31-1.25,8.39-3.29,11.97-6,1.02-.77,2.1-2.09,1.43-3.18-2.68,1.3-5.35,2.59-8.03,3.89-.29-.52-.2-1.23.2-1.67-.98.32-1.95.64-2.93.97,2.59-1.52,4.97-3.37,7.08-5.5-.43.21-.86.41-1.3.62,6.25-7.28,9.53-17.04,8.93-26.61-.89.85-.28,2.57.9,2.93,1.03.32,2.15-.2,2.85-1.03ZM58.83,72.33"
          style="fill:#fecdd3; stroke-width:0px;"/>
    <path d="M18.7,61c-.09-2.65-.16-5.26-.19-7.94.1-1.4,1.08-2.71,2.41-3.2.66-.28,1.42-.26,2.05-.27l1.98-.03c5.28-.07,10.55-.07,15.83-.1,5.28.04,10.55.03,15.84.1,1.46.02,2.83.95,3.4,2.25.31.63.36,1.41.33,2.05l-.03,1.98c-.07,2.64-.11,5.28-.21,7.92-.1-2.64-.14-5.28-.21-7.92l-.03-1.98c0-.67-.05-1.26-.34-1.81-.53-1.1-1.71-1.84-2.91-1.81l-15.83.1c-5.28-.04-10.55-.03-15.83-.1l-1.98-.03c-.68,0-1.28-.05-1.86.17-1.16.39-2.05,1.49-2.18,2.73l-.23,7.89Z"
          style="fill:#4d2600; stroke-width:0px;"/>
    <path d="M51.08,56.57c.38-.09.82-.05,1.21.12.39.18.71.46.99.73.56.55,1.05.89,1.69.87.65.02,1.13-.32,1.69-.87.28-.27.6-.55.99-.73.39-.18.83-.22,1.21-.12-.81.18-1.25.69-1.69,1.31-.23.31-.5.64-.88.9-.38.26-.87.38-1.32.39-.45,0-.93-.13-1.31-.39-.38-.26-.66-.59-.88-.9-.45-.62-.89-1.13-1.69-1.31Z"
          style="fill:#4d2600; stroke-width:0px;"/>
    <path d="M19.94,56.57c.58-.06,1.19.17,1.63.58.45.39.81.85,1.28,1.1.44.26,1,.28,1.49.14.48-.14.83-.52,1.2-.96.36-.43.83-.97,1.53-1.15.65-.17,1.38-.12,1.98.25.6.36.95.89,1.32,1.24.37.36.77.53,1.25.53.48,0,.88-.17,1.25-.53.38-.35.73-.87,1.32-1.24.61-.37,1.33-.42,1.99-.25.69.18,1.17.71,1.53,1.15.37.44.72.82,1.2.96.48.14,1.04.12,1.48-.14.46-.24.83-.71,1.28-1.1.44-.41,1.05-.64,1.63-.58-.59.04-1.1.33-1.47.74-.38.41-.69.92-1.21,1.29-.54.37-1.22.45-1.85.31-.66-.14-1.16-.64-1.55-1.05-.4-.42-.77-.76-1.23-.86-.46-.1-.98-.05-1.35.21-.39.25-.72.7-1.17,1.15-.44.46-1.17.81-1.84.79-.68.02-1.41-.33-1.84-.79-.45-.45-.77-.9-1.17-1.15-.37-.26-.89-.31-1.35-.21-.45.1-.83.44-1.23.86-.39.41-.89.9-1.55,1.05-.63.14-1.31.06-1.85-.31-.53-.37-.83-.88-1.21-1.29-.37-.42-.88-.7-1.47-.74Z"
          style="fill:#4d2600; stroke-width:0px;"/>
    <path d="M22.3,47.28l-.12-3.09-.05-1.55c-.03-.52.04-1.1.28-1.59.46-1.01,1.49-1.74,2.62-1.83,1.06-.04,2.07-.05,3.11-.07,4.12-.07,8.25-.07,12.37-.1,4.12.03,8.25.03,12.37.1l.78.02c.29.02.57.08.84.16.54.18,1.03.5,1.4.92.38.42.64.93.76,1.48.12.57.05,1.09.05,1.59-.07,2.06-.11,4.12-.21,6.18-.1-2.06-.14-4.12-.21-6.18-.03-.52.02-1.04-.1-1.49-.11-.46-.35-.88-.68-1.21-.32-.34-.74-.58-1.18-.71-.22-.06-.45-.1-.68-.1h-.76c-4.12.08-8.24.08-12.36.11-4.12-.04-8.24-.03-12.36-.1-1.02-.01-2.08-.05-3.07-.05-.94.04-1.84.62-2.28,1.47-.23.42-.33.89-.33,1.4l-.05,1.55-.11,3.09Z"
          style="fill:#4d2600; stroke-width:0px;"/>
    <path d="M27.88,39.45c-.1-1.43-.14-2.85-.21-4.28l-.03-1.07c0-.33-.04-.76.1-1.15.25-.78.96-1.4,1.79-1.53,1.52-.1,2.88-.06,4.32-.09l4.28-.04c2.85.03,5.71.03,8.56.1l2.14.06c.78-.03,1.61.41,1.99,1.11.2.34.28.74.27,1.13l-.05,1.07c-.03.71-.07,1.43-.12,2.14-.05-.71-.09-1.43-.12-2.14l-.05-1.07c-.02-.33-.12-.64-.31-.91-.36-.54-.97-.84-1.62-.78l-2.14.06c-2.85.07-5.71.07-8.56.1l-8.51-.08c-.59.05-1.14.47-1.36,1.05-.13.28-.12.59-.13.96l-.03,1.07c-.07,1.43-.11,2.85-.21,4.28Z"
          style="fill:#4d2600; stroke-width:0px;"/>
    <path d="M31.62,45.95c.59-.04,1.1-.33,1.47-.74.38-.41.69-.92,1.21-1.29.54-.37,1.22-.45,1.85-.31.66.14,1.16.64,1.55,1.05.4.42.77.76,1.23.86.46.1.98.05,1.35-.21.39-.25.72-.7,1.17-1.15.44-.47,1.17-.8,1.84-.79.68-.02,1.41.33,1.84.79.45.45.77.9,1.17,1.15.37.26.89.31,1.35.21.45-.1.83-.44,1.23-.86.39-.41.89-.9,1.55-1.05.63-.14,1.31-.05,1.85.31.53.37.83.88,1.21,1.29.37.42.88.7,1.47.74-.58.06-1.19-.17-1.63-.58-.45-.39-.81-.85-1.28-1.1-.44-.26-1-.28-1.48-.14-.48.14-.83.52-1.2.96-.36.44-.83.97-1.53,1.15-.65.17-1.38.12-1.99-.25-.6-.37-.95-.89-1.32-1.24-.37-.36-.77-.53-1.25-.53-.48,0-.88.17-1.25.53-.38.35-.73.87-1.32,1.24-.61.37-1.33.42-1.98.25-.69-.18-1.17-.71-1.53-1.15-.37-.44-.72-.82-1.2-.96-.48-.14-1.04-.12-1.49.14-.46.24-.83.71-1.28,1.1-.44.41-1.05.64-1.63.58Z"
          style="fill:#4d2600; stroke-width:0px;"/>
    <path d="M23.83,45.95c.39-.19.68-.37.92-.59.24-.23.45-.49.7-.78.26-.28.57-.59.99-.77.41-.19.9-.2,1.28-.01-.39.19-.68.37-.92.59-.24.23-.45.49-.7.78-.26.28-.57.59-.99.77-.41.19-.89.2-1.28.02Z"
          style="fill:#4d2600; stroke-width:0px;"/>
    <path d="M31.46,36.59c.49-.04.92-.25,1.26-.56.34-.31.59-.72.94-1.09.67-.81,1.99-1.08,2.97-.49.49.28.82.69,1.14,1.02.32.32.64.58,1.01.65.37.08.8.06,1.14-.09.35-.14.63-.46.95-.81.33-.35.7-.78,1.26-1.01.55-.23,1.13-.25,1.69-.1.58.15,1.02.56,1.35.93.34.37.61.74.94.96.66.44,1.67.4,2.32-.22.35-.29.67-.67,1.09-.96.41-.3.92-.44,1.41-.38-.49.04-.92.25-1.26.56-.34.31-.59.72-.93,1.09-.67.81-1.99,1.08-2.97.49-.49-.28-.82-.69-1.14-1.02-.32-.32-.64-.58-1.01-.65-.37-.08-.8-.06-1.14.09-.35.14-.63.46-.95.81-.33.35-.7.78-1.26,1.01-.55.23-1.13.25-1.69.1-.58-.15-1.02-.56-1.35-.93-.34-.37-.61-.74-.94-.96-.66-.44-1.67-.41-2.32.22-.35.29-.67.68-1.09.96-.41.3-.92.44-1.4.38Z"
          style="fill:#4d2600; stroke-width:0px;"/>
    <path d="M36.16,19.39c.26,1.35.25,2.67.18,4-.04.66-.13,1.32-.2,1.98-.06.66-.16,1.32-.34,1.98-.18-.66-.28-1.33-.34-2-.07-.67-.02-1.33,0-2,.1-1.33.26-2.66.69-3.96Z"
          style="fill:#4d2600; stroke-width:0px;"/>
    <path d="M31.84,31.74c-.34-2.06-.42-4.11-.44-6.17.01-1.03-.09-2.05-.07-3.08,0-1.03.03-2.06.14-3.1.25,1.02.41,2.04.54,3.07.12,1.03.25,2.06.26,3.09-.01,2.07-.09,4.13-.44,6.2Z"
          style="fill:#4d2600; stroke-width:0px;"/>
    <path d="M35.98,16.87c.03,1.13-.89,2.26-2.16,2.38-.62.06-1.29-.14-1.79-.58-.5-.44-.8-1.11-.8-1.79,0-.68.3-1.35.8-1.79.5-.45,1.17-.65,1.79-.59,1.28.12,2.19,1.25,2.16,2.38ZM35.98,16.87c0-.57-.25-1.12-.68-1.48-.42-.36-.98-.52-1.48-.46-1.04.12-1.74,1.04-1.72,1.94-.02.9.68,1.82,1.72,1.94.51.06,1.07-.09,1.48-.46.42-.36.67-.92.68-1.48Z"
          style="fill:#4d2600; stroke-width:0px;"/>
    <path d="M43.72,19.39c.14,1.65.12,3.3.05,4.93l-.05-.22c.69,1.23,1.35,2.47,1.96,3.74.6,1.27,1.18,2.56,1.64,3.91-.86-1.14-1.6-2.33-2.32-3.55-.72-1.21-1.37-2.46-2-3.71v-.02c-.04-.07-.05-.14-.05-.2.17-1.63.39-3.26.77-4.87Z"
          style="fill:#4d2600; stroke-width:0px;"/>
    <path d="M36.16,30.44c.35-1.12.81-2.19,1.29-3.25.49-1.05,1.01-2.09,1.57-3.1l-.05.23c-.08-1.64-.11-3.28.06-4.94.41,1.61.62,3.24.78,4.87,0,.07,0,.15-.04.21v.02c-.53,1.04-1.09,2.05-1.67,3.05-.6.99-1.22,1.98-1.95,2.9Z"
          style="fill:#4d2600; stroke-width:0px;"/>
    <path d="M43.54,16.87c.03,1.13-.89,2.26-2.16,2.38-.62.06-1.3-.14-1.79-.58-.5-.44-.8-1.11-.8-1.79,0-.68.3-1.35.8-1.79.5-.45,1.17-.65,1.79-.59,1.27.12,2.19,1.25,2.16,2.38ZM43.54,16.87c0-.57-.25-1.12-.68-1.48-.42-.36-.98-.52-1.48-.46-1.04.12-1.74,1.04-1.72,1.94-.02.9.68,1.82,1.72,1.94.51.06,1.07-.09,1.48-.46.42-.36.67-.92.68-1.48Z"
          style="fill:#4d2600; stroke-width:0px;"/>
    <path d="M55.45,65.64c-6.33.13-12.67.26-19,.31-6.33.09-12.67.08-19,.11-.23,0-.42-.18-.42-.41h0s0-1.8,0-1.8c0-.23.19-.42.42-.43,3.66-.03,7.32.01,10.98.02l10.98.04,10.98.12,10.98.2s.04.02.04.03h0s-.04,1.8-.04,1.8l-.04-1.8.04.04-10.98.2-10.98.12-10.98.04c-3.66,0-7.32.04-10.98.02l.42-.42v1.8s-.42-.42-.42-.42c6.33.03,12.67.02,19,.11,6.33.05,12.67.17,19,.31Z"
          style="fill:#4d2600; stroke-width:0px;"/>
</svg>
