<?xml version="1.0" encoding="UTF-8"?>
<svg id="b" xmlns="http://www.w3.org/2000/svg" viewBox="0 0 80 80">
    <path d="M76.47,38.13c.1-.08.19-.18.26-.28.98-1.27.84-3.05.55-4.63-1.86-10.08-8-19.31-16.6-24.9C52.09,2.73,41.17.84,31.2,3.23,10.8,8.14-1.4,29.12,3.63,49.31c.97,3.89,2.54,7.62,4.7,11,7.4,11.55,21.43,18.49,35.1,17.35,3.02-.25,6.07-.88,8.71-2.36,1.25-.7,2.46-1.6,3.89-1.7.33-.02.73.04.85.35.12.3-.43.62-.52.3,3.98-1.07,7.72-2.97,10.93-5.55.88-.7,1.8-1.82,1.29-2.83-2.87,1.72-6.22,2.65-9.57,2.65,8.79-7.7,14-19.33,13.9-31.02.32,1.44,2.45,1.6,3.55.63ZM58.82,73.1"
          style="fill:#fecdd3; stroke-width:0px;"/>
    <path d="M45.89,45.89c1.83-1.39,3.1-3.48,3.36-5.73.31-2.25-.32-4.51-1.09-6.63-.91-2.09-1.67-4.33-2.08-6.62-.42-2.29-.54-4.64-.32-6.97l.03.22-1.75-4.05.43.28-14.4.06.5-.66c1.09,3.97,1.16,8.2.28,12.21-.41,2-1.16,3.98-1.9,5.8-.34.93-.61,1.87-.78,2.84-.22.96-.26,1.93-.22,2.89.12,1.92.94,3.79,2.31,5.17,1.38,1.39,3.18,2.27,5.13,2.77,1.05.34,1.86,1.22,2.18,2.24.17.5.18,1.07.16,1.56l-.03,1.51-.06,3.02c-.03.51.01,1-.08,1.52-.14.51-.64.87-1.15.85.51,0,.97-.39,1.07-.87.06-.48,0-1,0-1.5l-.06-3.02-.03-1.51c0-.52-.03-.97-.2-1.43-.32-.89-1.06-1.62-1.95-1.87-1.95-.45-3.94-1.33-5.44-2.79-1.52-1.45-2.47-3.48-2.65-5.58-.19-2.11.29-4.17.95-6.11.76-1.92,1.43-3.73,1.82-5.69.82-3.87.69-7.93-.34-11.74-.08-.28.09-.56.36-.64.05-.01.1-.02.14-.02l14.4.06c.19,0,.35.12.43.28l1.72,4.06h0c.03.08.04.15.03.22-.25,2.24-.2,4.52.16,6.76.35,2.25,1.03,4.4,1.89,6.55.4,1.09.69,2.23.86,3.38.19,1.15.22,2.34.01,3.49-.35,2.32-1.76,4.41-3.67,5.69Z"
          style="fill:#4d2600; stroke-width:0px;"/>
    <path d="M32.65,58.17c-1,.06-2,.1-3,.14-.49-.03-.89.24-1.04.63-.15.39,0,.85.32,1.08.16.11.35.18.54.18l.74-.02,1.5-.04,3-.07c4.01-.09,8.01-.08,12.02-.12h.75s.38,0,.38,0c.12,0,.16,0,.23-.02.27-.07.48-.33.48-.62,0-.28-.2-.56-.48-.63-.1-.04-.37-.02-.62-.03h-.75s-3-.03-3-.03h-1.5s-.75-.03-.75-.03c-.24-.02-.49.02-.85-.07-.66-.17-1.14-.82-1.12-1.49l.04-1.51.07-3,.06-1.5c0-.5.08-1.05.3-1.52.4-.96,1.28-1.7,2.27-1.9-.96.31-1.7,1.1-2.01,2-.16.46-.19.92-.16,1.42l.06,1.5.07,3,.04,1.5c.01.34.27.65.59.72l5.9-.05h.75c.24,0,.48-.05.87.04.7.17,1.23.85,1.23,1.58.02.73-.5,1.42-1.21,1.61-.16.05-.38.07-.51.07h-.38s-.75,0-.75,0c-4.01-.04-8.01-.04-12.02-.12l-3-.07-1.5-.04-.76-.02c-.31-.01-.62-.13-.85-.33-.48-.4-.62-1.1-.36-1.63.24-.55.88-.84,1.4-.75,1,.03,2,.08,3,.14Z"
          style="fill:#4d2600; stroke-width:0px;"/>
</svg>
